<svg version="1.1" viewBox="0.0 0.0 960.0 720.0" fill="none" stroke="none" stroke-linecap="square" stroke-miterlimit="10" xmlns:xlink="http://www.w3.org/1999/xlink" xmlns="http://www.w3.org/2000/svg"><clipPath id="p.0"><path d="m0 0l960.0 0l0 720.0l-960.0 0l0 -720.0z" clip-rule="nonzero"/></clipPath><g clip-path="url(#p.0)"><path fill="#000000" fill-opacity="0.0" d="m0 0l960.0 0l0 720.0l-960.0 0z" fill-rule="evenodd"/><path fill="#ffffff" d="m230.2336 220.53018l408.53546 0l0 213.32285l-408.53546 0z" fill-rule="evenodd"/><path fill="#45818e" d="m245.7961 383.92706q-1.609375 0 -2.484375 -0.71875q-0.875 -0.71875 -0.875 -1.671875q0 -2.40625 3.515625 -3.359375q5.4375 -1.453125 7.75 -3.359375q2.3281097 -1.921875 2.3281097 -7.046875l0 -72.796875q0 -5.125 -2.0781097 -7.359375q-2.078125 -2.25 -7.84375 -3.53125q-2.078125 -0.46875 -2.875 -1.34375q-0.796875 -0.890625 -0.796875 -2.015625q0 -0.953125 0.953125 -1.671875q0.96875 -0.71875 2.5625 -0.71875q4.0 0 8.15625 0.15625q4.1718597 0.15625 8.17186 0.40625q4.0 0.234375 7.671875 0.234375q8.328125 0 17.765625 -0.15625q9.4375 -0.15625 16.796875 -0.328125q5.125 0 8.484375 -0.546875q3.359375 -0.5625 4.0 -0.5625q1.109375 0 2.46875 0.71875q1.359375 0.71875 1.53125 2.3125q0.640625 5.765625 1.59375 11.203125q0.953125 5.4375 0.953125 9.59375q0 1.453125 -0.640625 2.25q-0.625 0.796875 -1.4375 0.796875q-0.796875 0 -1.671875 -0.640625q-0.875 -0.640625 -1.359375 -1.921875q-1.609375 -4.0 -2.890625 -6.875q-1.265625 -2.890625 -2.875 -4.640625q-1.921875 -1.765625 -4.640625 -3.359375q-2.71875 -1.609375 -6.875 -1.609375l-12.0 0q-3.515625 0 -6.078125 1.84375q-2.5625 1.84375 -2.5625 5.203125l0 30.234375q0 1.921875 1.109375 2.890625q1.125 0.953125 2.890625 0.953125l14.078125 0q4.15625 0 6.0 -2.796875q1.84375 -2.796875 3.28125 -6.796875q1.125 -3.046875 3.203125 -3.046875q0.796875 0 1.4375 0.890625q0.640625 0.875 0.484375 2.625q-0.171875 1.921875 -0.328125 4.171875q-0.15625 2.234375 -0.234375 4.484375q-0.078125 2.234375 -0.078125 4.3125q0 1.921875 0.078125 4.15625q0.078125 2.234375 0.15625 4.484375q0.078125 2.234375 0.234375 4.3125q0.328125 2.25 -0.15625 3.296875q-0.484375 1.03125 -1.4375 1.03125q-2.5625 0 -3.6875 -4.171875q-1.4375 -4.796875 -3.203125 -7.34375q-1.75 -2.5625 -4.953125 -2.5625l-14.875 0q-1.921875 0 -2.96875 0.875q-1.03125 0.875 -1.03125 2.796875l0 30.40625q0 4.796875 2.078125 6.71875q2.078125 1.921875 6.40625 1.921875l13.75 0q3.53125 0 6.71875 -0.796875q3.203125 -0.8125 5.453125 -2.734375q2.71875 -2.234375 4.953125 -5.59375q2.234375 -3.359375 4.15625 -7.203125q0.640625 -1.109375 1.359375 -1.515625q0.71875 -0.40625 1.6875 -0.40625q0.796875 0 1.1875 0.96875q0.40625 0.953125 0.40625 2.078125q0 2.71875 -0.796875 6.078125q-0.796875 3.359375 -2.0 7.125q-1.203125 3.75 -2.328125 7.4375q-0.3125 1.125 -1.359375 1.59375q-1.03125 0.484375 -2.15625 0.484375q-2.078125 0 -7.765625 -0.078125q-5.671875 -0.078125 -13.359375 -0.25q-7.671875 -0.15625 -15.828125 -0.234375q-8.15625 -0.078125 -15.203125 -0.078125q-3.203125 0 -7.046875 0.15625q-3.828125 0.15625 -7.7499847 0.390625q-3.921875 0.25 -7.28125 0.25zm91.20317 -0.3125q-1.453125 0 -2.328125 -0.5625q-0.875 -0.5625 -0.875 -1.6875q0 -1.28125 0.953125 -2.0q0.96875 -0.71875 2.71875 -1.1875q2.40625 -0.8125 4.234375 -1.765625q1.84375 -0.96875 1.84375 -4.328125l0 -76.953125q0 -4.3125 -1.203125 -7.515625q-1.1875 -3.203125 -5.1875 -4.0q-1.609375 -0.328125 -1.609375 -2.40625q0 -2.078125 1.453125 -2.390625q4.15625 -0.8125 8.953125 -2.328125q4.796875 -1.515625 9.109375 -3.1875q4.328125 -1.6875 6.734375 -2.484375q1.28125 -0.484375 2.078125 -0.484375q0.953125 0 1.265625 0.5625q0.328125 0.546875 0.328125 1.359375q0 1.109375 -0.40625 4.15625q-0.390625 3.03125 -0.546875 6.875l0 88.484375q0 3.515625 1.828125 4.40625q1.84375 0.875 4.25 1.671875q1.765625 0.640625 2.71875 1.28125q0.96875 0.640625 0.96875 1.921875q0 1.125 -0.890625 1.6875q-0.875 0.546875 -2.3125 0.546875q-3.046875 0 -6.015625 -0.15625q-2.953125 -0.15625 -5.75 -0.234375q-2.796875 -0.078125 -5.671875 -0.078125q-2.71875 0 -5.359375 0.15625q-2.640625 0.15625 -5.375 0.390625q-2.71875 0.25 -5.90625 0.25zm45.756256 0q-0.96875 0 -1.765625 -0.5625q-0.796875 -0.5625 -0.796875 -1.515625q0 -1.28125 0.796875 -2.078125q0.796875 -0.8125 2.078125 -1.125q4.171875 -0.96875 5.84375 -2.15625q1.6875 -1.203125 1.6875 -3.765625l0 -34.5625q0 -5.4375 -1.6875 -7.75q-1.671875 -2.328125 -5.203125 -2.8125q-0.953125 -0.15625 -1.4375 -0.953125q-0.484375 -0.796875 -0.484375 -1.921875q0 -2.40625 1.765625 -2.71875q8.328125 -1.609375 14.796875 -4.484375q6.484375 -2.875 10.0 -4.484375q2.5625 -1.28125 3.203125 -1.28125q2.078125 0 2.078125 1.921875q-0.15625 2.71875 -0.71875 6.8125q-0.5625 4.078125 -0.96875 8.40625q-0.390625 4.3125 -0.390625 8.3125l0 35.359375q0 2.234375 1.671875 3.515625q1.6875 1.28125 6.015625 2.5625q1.28125 0.484375 2.078125 1.125q0.796875 0.625 0.796875 1.90625q0 2.078125 -2.40625 2.078125q-3.03125 0 -6.390625 -0.15625q-3.359375 -0.15625 -6.484375 -0.3125q-3.125 -0.15625 -6.0 -0.15625q-2.71875 0 -5.6875 0.15625q-2.953125 0.15625 -6.078125 0.390625q-3.109375 0.25 -6.3125 0.25zm17.59375 -79.359375q-4.953125 0 -8.71875 -3.671875q-3.765625 -3.6875 -3.765625 -8.8125q0 -5.4375 3.765625 -9.109375q3.765625 -3.6875 8.71875 -3.6875q5.59375 0 9.28125 3.6875q3.6875 3.671875 3.6875 9.109375q0 5.125 -3.6875 8.8125q-3.6875 3.671875 -9.28125 3.671875zm28.481293 79.515625q-1.109375 0 -2.484375 -0.328125q-1.359375 -0.3125 -1.359375 -1.4375q0 -1.4375 0.71875 -2.15625q0.734375 -0.71875 2.328125 -1.359375q1.765625 -0.640625 3.59375 -2.234375q1.84375 -1.609375 5.046875 -5.765625l14.71875 -20.15625q0.953125 -1.28125 0.953125 -2.078125q0 -0.8125 -0.796875 -2.078125l-12.0 -17.765625q-2.078125 -3.203125 -3.6875 -5.125q-1.59375 -1.921875 -4.140625 -2.875q-1.609375 -0.484375 -2.328125 -1.203125q-0.71875 -0.71875 -0.71875 -2.15625q0 -1.28125 1.4375 -1.59375q1.4375 -0.328125 2.40625 -0.328125q4.0 0 6.078125 0.25q2.078125 0.234375 4.234375 0.46875q2.15625 0.234375 5.6875 0.234375q4.640625 0 7.75 -0.390625q3.125 -0.40625 8.40625 -0.40625q0.953125 0 2.390625 0.40625q1.453125 0.390625 1.453125 1.671875q0 1.28125 -1.203125 1.765625q-1.203125 0.484375 -2.484375 1.125q-1.59375 0.640625 -3.046875 1.4375q-1.4375 0.796875 -1.4375 2.390625q0 0.96875 0.640625 2.25q0.640625 1.28125 1.453125 2.71875l7.359375 10.71875q0.796875 1.4375 1.4375 0l4.953125 -8.484375q0.796875 -1.59375 1.515625 -3.515625q0.734375 -1.921875 0.5625 -3.515625q0 -2.5625 -2.875 -3.6875q-1.28125 -0.640625 -2.328125 -1.109375q-1.03125 -0.484375 -1.03125 -1.921875q0 -1.28125 1.4375 -1.6875q1.4375 -0.40625 2.40625 -0.40625q4.0 0.171875 6.15625 0.25q2.15625 0.078125 4.234375 0.078125q2.40625 0 4.234375 -0.234375q1.84375 -0.25 6.015625 -0.40625q1.109375 0 2.46875 0.328125q1.359375 0.3125 1.359375 1.59375q0 1.28125 -0.71875 2.0q-0.71875 0.71875 -2.3125 1.359375q-1.765625 0.640625 -3.765625 2.25q-2.0 1.59375 -5.03125 5.59375l-11.53125 15.359375q-0.953125 1.4375 -0.875 2.234375q0.078125 0.796875 0.875 1.921875l13.453125 21.125q2.078125 3.359375 4.796875 5.765625q2.71875 2.390625 5.59375 3.515625q1.609375 0.46875 2.328125 1.1875q0.71875 0.71875 0.71875 2.171875q0 1.28125 -1.359375 1.59375q-1.359375 0.3125 -2.484375 0.3125q-3.84375 0 -6.640625 -0.234375q-2.796875 -0.234375 -5.515625 -0.46875q-2.71875 -0.25 -6.25 -0.25q-4.796875 0 -8.71875 0.40625q-3.921875 0.390625 -9.359375 0.390625q-3.828125 0 -3.828125 -2.078125q0 -1.4375 1.03125 -2.0q1.046875 -0.5625 2.640625 -1.03125q2.078125 -0.640625 3.359375 -1.921875q1.28125 -1.28125 1.28125 -4.171875q0 -1.59375 -0.328125 -2.796875q-0.3125 -1.203125 -1.59375 -2.953125l-8.15625 -12.0q-0.484375 -0.484375 -0.96875 0l-7.515625 13.28125q-0.484375 0.953125 -1.359375 2.71875q-0.875 1.75 -0.875 3.515625q0 1.59375 0.71875 2.796875q0.71875 1.203125 2.15625 2.0q1.28125 0.484375 2.390625 1.046875q1.125 0.5625 1.125 1.84375q0 1.28125 -1.359375 1.671875q-1.359375 0.40625 -2.46875 0.40625q-4.171875 0 -5.9375 -0.171875q-1.75 -0.15625 -3.828125 -0.15625q-2.40625 0 -4.734375 0.078125q-2.3125 0.078125 -6.46875 0.40625zm81.92505 -0.15625q-0.96875 0 -1.765625 -0.5625q-0.796875 -0.5625 -0.796875 -1.515625q0 -1.28125 0.796875 -2.078125q0.796875 -0.8125 2.078125 -1.125q4.171875 -0.96875 5.84375 -2.15625q1.6875 -1.203125 1.6875 -3.765625l0 -34.5625q0 -5.4375 -1.6875 -7.75q-1.671875 -2.328125 -5.203125 -2.8125q-0.953125 -0.15625 -1.4375 -0.953125q-0.484375 -0.796875 -0.484375 -1.921875q0 -2.40625 1.765625 -2.71875q8.328125 -1.609375 14.796875 -4.484375q6.484375 -2.875 10.0 -4.484375q2.5625 -1.28125 3.203125 -1.28125q2.078125 0 2.078125 1.921875q-0.15625 2.71875 -0.71875 6.8125q-0.5625 4.078125 -0.96875 8.40625q-0.390625 4.3125 -0.390625 8.3125l0 35.359375q0 2.234375 1.671875 3.515625q1.6875 1.28125 6.015625 2.5625q1.28125 0.484375 2.078125 1.125q0.796875 0.625 0.796875 1.90625q0 2.078125 -2.40625 2.078125q-3.03125 0 -6.390625 -0.15625q-3.359375 -0.15625 -6.484375 -0.3125q-3.125 -0.15625 -6.0 -0.15625q-2.71875 0 -5.6875 0.15625q-2.953125 0.15625 -6.078125 0.390625q-3.109375 0.25 -6.3125 0.25zm17.59375 -79.359375q-4.953125 0 -8.71875 -3.671875q-3.765625 -3.6875 -3.765625 -8.8125q0 -5.4375 3.765625 -9.109375q3.765625 -3.6875 8.71875 -3.6875q5.59375 0 9.28125 3.6875q3.6875 3.671875 3.6875 9.109375q0 5.125 -3.6875 8.8125q-3.6875 3.671875 -9.28125 3.671875zm30.403137 79.359375q-1.28125 0 -2.25 -0.5625q-0.953125 -0.5625 -0.953125 -1.6875q0 -1.28125 0.953125 -2.0q0.96875 -0.71875 2.734375 -1.1875q3.515625 -1.125 4.71875 -2.40625q1.203125 -1.28125 1.203125 -3.6875l0 -36.796875q0 -3.359375 -0.890625 -5.515625q-0.875 -2.15625 -3.921875 -2.953125q-0.796875 -0.328125 -1.4375 -0.890625q-0.640625 -0.5625 -0.640625 -2.0q0 -2.234375 1.921875 -2.71875q5.125 -1.28125 11.28125 -3.359375q6.15625 -2.078125 10.484375 -4.15625q0.796875 -0.640625 2.0 -1.203125q1.203125 -0.5625 1.671875 -0.5625q1.453125 0 1.453125 1.765625q0 0.796875 -0.09375 3.28125q-0.078125 2.46875 -0.15625 5.03125q-0.078125 2.5625 -0.234375 4.328125q0 1.4375 0.640625 1.4375q2.390625 -3.359375 5.671875 -6.5625q3.28125 -3.203125 7.125 -5.28125q3.84375 -2.078125 7.515625 -2.078125q5.609375 0 7.921875 2.078125q2.328125 2.078125 2.328125 5.4375q0 2.40625 -1.359375 5.296875q-1.359375 2.875 -3.453125 4.953125q-2.078125 2.078125 -4.46875 2.078125q-1.4375 0 -3.046875 -0.71875q-1.59375 -0.71875 -3.203125 -1.53125q-1.59375 -0.625 -3.125 -1.34375q-1.515625 -0.734375 -2.796875 -0.734375q-4.15625 0 -7.203125 3.046875q-3.03125 3.03125 -3.03125 12.15625l0 26.078125q0 3.203125 2.0 4.734375q2.0 1.515625 6.484375 2.796875q1.75 0.46875 2.625 1.1875q0.890625 0.71875 0.890625 2.0q0 2.25 -2.71875 2.25q-4.796875 0 -9.921875 -0.40625q-5.125 -0.390625 -9.28125 -0.390625q-2.71875 0 -5.515625 0.15625q-2.796875 0.15625 -5.765625 0.390625q-2.953125 0.25 -6.15625 0.25z" fill-rule="nonzero"/></g></svg>